<svg width="249.60000000000005" height="62.145016729646755" viewBox="0 0 370 92.12201999186416" class="looka-1j8o68f"><defs id="SvgjsDefs1192"><linearGradient id="SvgjsLinearGradient1197"><stop id="SvgjsStop1198" stop-color="#ef4136" offset="0"></stop><stop id="SvgjsStop1199" stop-color="#fbb040" offset="1"></stop></linearGradient><linearGradient id="SvgjsLinearGradient1200"><stop id="SvgjsStop1201" stop-color="#ef4136" offset="0"></stop><stop id="SvgjsStop1202" stop-color="#fbb040" offset="1"></stop></linearGradient></defs><g id="SvgjsG1193" featurekey="rDwwlG-0" transform="matrix(3.8462789058685303,0,0,3.8462789058685303,-7.692299086386994,-10.77741746872672)" fill="url(#SvgjsLinearGradient1197)"><g xmlns="http://www.w3.org/2000/svg" transform="translate(-450 -320)"><g xmlns="http://www.w3.org/2000/svg" xmlns:xlink="http://www.w3.org/1999/xlink"><path d="M477.903,333.73c0.554,3.9-1.322,8.195-4.745,10.642c-1.681,1.262-3.731,2.027-5.838,2.295    c-2.073,0.279-4.436-0.119-6.325-1.225c-1.902-1.113-3.417-2.865-4.224-4.906c-0.777-2.051-0.897-4.332-0.228-6.389    c0.632-2.063,1.999-3.836,3.729-4.979c1.734-1.139,3.83-1.641,5.775-1.367c-3.911,0.477-6.987,3.416-7.675,6.834    c-0.759,3.414,0.871,7.072,3.836,8.709c0.719,0.432,1.512,0.732,2.333,0.91c0.814,0.18,1.665,0.184,2.558,0.135    c1.756-0.107,3.467-0.685,5.011-1.584C475.194,340.975,477.416,337.619,477.903,333.73z"></path><path d="M452.096,335.826c-0.554-3.9,1.322-8.195,4.744-10.641c1.682-1.262,3.73-2.027,5.838-2.297    c2.074-0.279,4.437,0.119,6.326,1.225c1.902,1.113,3.416,2.865,4.225,4.906c0.777,2.049,0.897,4.332,0.228,6.389    c-0.632,2.061-1.999,3.834-3.729,4.978c-1.734,1.139-3.831,1.641-5.775,1.367c3.911-0.477,6.986-3.416,7.676-6.836    c0.758-3.412-0.874-7.07-3.838-8.707c-0.719-0.432-1.513-0.734-2.333-0.91c-0.815-0.18-1.665-0.184-2.558-0.133    c-1.756,0.105-3.467,0.685-5.011,1.584C454.805,328.584,452.583,331.938,452.096,335.826z"></path><circle cx="465" cy="335" r="4"></circle></g></g></g><g id="SvgjsG1194" featurekey="4AZ1rv-0" transform="matrix(4.037467956542969,0,0,4.037467956542969,114.5090457757553,-5.771321291859174)" fill="url(#SvgjsLinearGradient1200)"><path d="M1.36 20 l0 -13.22 l3.26 0 l3.66 5.38 c0.54 0.8 1.24 1.9 1.88 2.96 c-0.06 -1.18 -0.1 -2.46 -0.1 -3.42 l0 -4.92 l3.2 0 l0 13.22 l-3.28 0 l-4.08 -5.96 c-0.4 -0.58 -0.94 -1.48 -1.44 -2.38 c0.06 1.08 0.1 2.18 0.1 2.94 l0 5.4 l-3.2 0 z M24.4 16.04 l-5.92 0 c0.08 1.34 0.46 1.92 1.76 1.92 c0.8 0 1.28 -0.22 1.42 -0.94 l2.74 0.48 c-0.52 1.74 -1.76 2.78 -4.26 2.78 c-3.12 0 -4.92 -1.62 -4.92 -4.84 c0 -2.6 1.16 -5.06 4.78 -5.06 c2.94 0 4.4 1.62 4.4 4.64 l0 1.02 z M19.880000000000003 12.6 c-0.76 0 -1.2 0.36 -1.36 1.54 l2.6 0 l0 -0.02 c0 -1.1 -0.42 -1.52 -1.24 -1.52 z M26.04 20 l0 -14.36 l3.12 0 l0 5.64 c0.46 -0.44 1.08 -0.9 2.34 -0.9 c2.82 0 4 2.3 4 4.8 c0 2.82 -1.5 5.1 -4.16 5.1 c-1.44 0 -2.22 -0.64 -2.7 -1.52 l-0.08 1.24 l-2.52 0 z M30.66 17.96 c0.9 0 1.6 -0.86 1.6 -2.7 c0 -1.42 -0.42 -2.56 -1.54 -2.56 s-1.58 1.14 -1.58 2.6 c0 1.28 0.36 2.66 1.52 2.66 z M46.04 10.66 l0 9.34 l-2.82 0 l-0.08 -1.46 c-0.26 0.56 -1.04 1.74 -3.1 1.74 c-1.38 0 -2.98 -0.56 -2.98 -3.48 l0 -6.14 l3.12 0 l0 5.34 c0 1.1 0.26 1.64 0.9 1.64 c1.08 0 1.66 -1.82 1.84 -2.5 l0 -4.48 l3.12 0 z M48.44 20 l0 -13.22 l4.6 0 c3.88 0 5.42 1.62 5.42 4.52 c0 2.88 -1.5 4.8 -5.7 4.8 l-0.96 0 l0 3.9 l-3.36 0 z M52.92 9.6 l-1.12 0 l0 3.66 l0.94 0 c1.62 0 2.22 -0.52 2.22 -1.82 c0 -1.4 -0.7 -1.84 -2.04 -1.84 z M59.760000000000005 7.4 c0 -0.96 0.8 -1.74 1.76 -1.74 c0.98 0 1.76 0.78 1.76 1.74 s-0.78 1.76 -1.76 1.76 c-0.96 0 -1.76 -0.8 -1.76 -1.76 z M59.96 20 l0 -9.34 l3.12 0 l0 9.34 l-3.12 0 z"></path></g></svg>
