<svg xmlns="http://www.w3.org/2000/svg" version="1.1" xmlns:xlink="http://www.w3.org/1999/xlink" xmlns:svgjs="http://svgjs.dev/svgjs" width="100" height="92.12201999186416"><svg viewBox="0 0 100 92.12201999186416" xmlns="http://www.w3.org/2000/svg">
  <g transform="translate(-7.692299086386994, -10.77741746872672) scale(3.846278843624975)" fill="#f1580c">
    <g transform="translate(-450 -320)">
      <g>
        <path d="M477.903,333.73c0.554,3.9-1.322,8.195-4.745,10.642c-1.681,1.262-3.731,2.027-5.838,2.295
        c-2.073,0.279-4.436-0.119-6.325-1.225c-1.902-1.113-3.417-2.865-4.224-4.906c-0.777-2.051-0.897-4.332-0.228-6.389
        c0.632-2.063,1.999-3.836,3.729-4.979c1.734-1.139,3.83-1.641,5.775-1.367c-3.911,0.477-6.987,3.416-7.675,6.834
        c-0.759,3.414,0.871,7.072,3.836,8.709c0.719,0.432,1.512,0.732,2.333,0.91c0.814,0.18,1.665,0.184,2.558,0.135
        c1.756-0.107,3.467-0.685,5.011-1.584C475.194,340.975,477.416,337.619,477.903,333.73z"></path>
        
        <path d="M452.096,335.826c-0.554-3.9,1.322-8.195,4.744-10.641c1.682-1.262,3.73-2.027,5.838-2.297
        c2.074-0.279,4.437,0.119,6.326,1.225c1.902,1.113,3.416,2.865,4.225,4.906c0.777,2.049,0.897,4.332,0.228,6.389
        c-0.632,2.061-1.999,3.834-3.729,4.978c-1.734,1.139-3.831,1.641-5.775,1.367c3.911-0.477,6.986-3.416,7.676-6.836
        c0.758-3.412-0.874-7.07-3.838-8.707c-0.719-0.432-1.513-0.734-2.333-0.91c-0.815-0.18-1.665-0.184-2.558-0.133
        c-1.756,0.105-3.467,0.685-5.011,1.584C454.805,328.584,452.583,331.938,452.096,335.826z"></path>
        
        <circle cx="465" cy="335" r="4"></circle>
      </g>
    </g>
  </g>
</svg><style>@media (prefers-color-scheme: light) { :root { filter: none; } }
@media (prefers-color-scheme: dark) { :root { filter: none; } }
</style></svg>